<?xml version="1.0" standalone="no"?>
<!DOCTYPE svg PUBLIC "-//W3C//DTD SVG 20010904//EN"
 "http://www.w3.org/TR/2001/REC-SVG-20010904/DTD/svg10.dtd">
<svg version="1.0" xmlns="http://www.w3.org/2000/svg"
 width="1536.000000pt" height="1536.000000pt" viewBox="0 0 1536.000000 1536.000000"
 preserveAspectRatio="xMidYMid meet">
<metadata>
Created by potrace 1.10, written by Peter Selinger 2001-2011
</metadata>
<g transform="translate(0.000000,1536.000000) scale(0.100000,-0.100000)"
fill="#000000" stroke="none">
<path d="M6315 15345 c-8 -12 -45 -18 -160 -25 -146 -9 -321 -31 -515 -65 -52
-9 -124 -20 -159 -25 -35 -5 -77 -14 -95 -19 -17 -5 -62 -16 -101 -25 -192
-42 -224 -49 -275 -64 -30 -8 -73 -21 -95 -27 -22 -7 -67 -20 -100 -30 -33 -9
-91 -28 -130 -42 -38 -13 -83 -28 -100 -33 -85 -23 -435 -157 -449 -171 -6 -5
-16 -9 -22 -9 -7 0 -57 -20 -111 -45 -54 -25 -114 -53 -133 -62 -19 -9 -42
-19 -50 -24 -8 -4 -81 -41 -162 -83 -302 -154 -552 -309 -883 -545 -106 -75
-358 -276 -430 -342 -27 -26 -77 -69 -110 -96 -78 -64 -444 -430 -508 -508
-27 -33 -70 -83 -96 -110 -66 -72 -267 -324 -342 -430 -236 -331 -391 -581
-545 -883 -42 -81 -79 -154 -83 -162 -5 -8 -15 -31 -24 -50 -9 -19 -37 -79
-62 -133 -25 -54 -45 -104 -45 -111 0 -6 -4 -16 -9 -21 -14 -15 -148 -365
-171 -450 -5 -16 -20 -61 -33 -100 -14 -38 -33 -97 -42 -130 -10 -33 -23 -78
-30 -100 -6 -22 -19 -65 -27 -95 -15 -51 -22 -83 -64 -275 -9 -38 -20 -84 -25
-101 -5 -18 -14 -60 -19 -95 -5 -35 -16 -107 -25 -159 -67 -386 -80 -569 -80
-1100 0 -531 13 -714 80 -1100 9 -52 20 -124 25 -159 5 -35 14 -77 19 -95 5
-17 16 -62 25 -101 42 -192 49 -224 64 -275 8 -30 21 -73 27 -95 7 -22 20 -67
30 -100 9 -33 28 -91 42 -130 13 -38 28 -83 33 -100 11 -39 42 -128 74 -212 8
-21 31 -81 51 -133 20 -52 41 -99 46 -104 5 -6 9 -16 9 -22 0 -7 20 -57 45
-111 25 -54 53 -114 62 -133 9 -19 19 -42 24 -50 4 -8 41 -81 83 -162 154
-302 309 -552 545 -883 75 -106 276 -358 342 -430 26 -27 69 -77 96 -110 64
-78 430 -444 508 -508 33 -27 83 -70 110 -96 72 -66 324 -267 430 -342 331
-236 581 -391 883 -545 81 -42 154 -79 162 -83 8 -5 31 -15 50 -24 19 -9 79
-37 133 -62 54 -25 104 -45 111 -45 6 0 16 -4 22 -9 5 -5 52 -26 104 -46 52
-20 112 -43 133 -51 84 -32 173 -63 212 -74 17 -5 62 -20 100 -33 39 -14 97
-33 130 -42 33 -10 78 -23 100 -30 22 -6 65 -19 95 -27 51 -15 83 -22 275 -64
39 -9 84 -20 101 -25 18 -5 60 -14 95 -19 35 -5 105 -16 154 -24 176 -31 382
-58 505 -66 69 -5 170 -14 225 -19 129 -13 621 -13 750 0 55 5 156 14 225 19
123 8 329 35 505 66 50 8 119 19 154 24 35 5 77 14 95 19 17 5 63 16 101 25
192 42 224 49 275 64 30 8 73 21 95 27 22 7 67 20 100 30 33 9 92 28 130 42
39 13 84 28 100 33 39 11 138 45 210 73 22 9 83 32 135 52 52 20 99 41 104 46
6 5 16 9 22 9 7 0 57 20 111 45 54 25 114 53 133 62 19 9 42 19 50 24 8 4 81
41 162 83 302 154 552 309 883 545 106 75 358 276 430 342 27 26 77 69 110 96
78 64 444 430 508 508 27 33 70 83 96 110 66 72 267 324 342 430 236 331 391
581 545 883 42 81 79 154 83 162 5 8 15 31 24 50 9 19 37 79 62 133 25 54 45
104 45 111 0 6 4 16 9 22 14 14 148 364 171 449 5 17 20 62 33 100 14 39 33
97 42 130 10 33 23 78 30 100 6 22 19 65 27 95 15 51 22 83 64 275 9 39 20 84
25 101 5 18 14 60 19 95 5 35 16 105 24 154 31 176 58 382 66 505 5 69 14 170
19 225 13 129 13 621 0 750 -5 55 -14 156 -19 225 -8 123 -35 329 -66 505 -8
50 -19 119 -24 154 -5 35 -14 77 -19 95 -5 17 -16 63 -25 101 -42 192 -49 224
-64 275 -8 30 -21 73 -27 95 -7 22 -20 67 -30 100 -9 33 -28 92 -42 130 -13
39 -28 84 -33 100 -23 85 -157 435 -171 450 -5 5 -9 15 -9 21 0 7 -20 57 -45
111 -25 54 -53 114 -62 133 -9 19 -19 42 -24 50 -4 8 -41 81 -83 162 -154 302
-309 552 -545 883 -75 106 -276 358 -342 430 -26 27 -69 77 -96 110 -64 77
-429 443 -508 508 -33 27 -83 70 -110 96 -72 66 -324 267 -430 342 -331 236
-581 391 -883 545 -81 42 -154 79 -162 84 -8 5 -35 18 -60 28 -25 11 -85 39
-133 61 -49 23 -94 41 -101 41 -6 0 -16 4 -22 9 -5 5 -52 26 -104 46 -52 20
-112 43 -132 51 -85 32 -174 63 -213 74 -16 5 -61 20 -100 33 -38 14 -97 33
-130 42 -33 10 -78 23 -100 30 -22 6 -65 19 -95 27 -51 15 -83 22 -275 64 -38
9 -84 20 -101 25 -18 5 -60 14 -95 19 -35 5 -107 16 -159 25 -194 33 -369 56
-515 65 -113 8 -153 14 -161 25 -17 23 -834 23 -849 0z"/>
</g>
</svg>
